<svg width="14" height="14" viewBox="0 0 14 14" fill="none" xmlns="http://www.w3.org/2000/svg">
<path d="M5.99805 8.00024H0.998047C0.714713 8.00024 0.477213 7.90441 0.285547 7.71274C0.0938802 7.52108 -0.00195312 7.28358 -0.00195312 7.00024C-0.00195312 6.71691 0.0938802 6.47941 0.285547 6.28774C0.477213 6.09608 0.714713 6.00024 0.998047 6.00024H5.99805V1.00024C5.99805 0.716911 6.09388 0.479411 6.28555 0.287744C6.47721 0.0960775 6.71471 0.000244141 6.99805 0.000244141C7.28138 0.000244141 7.51888 0.0960775 7.71055 0.287744C7.90221 0.479411 7.99805 0.716911 7.99805 1.00024V6.00024H12.998C13.2814 6.00024 13.5189 6.09608 13.7105 6.28774C13.9022 6.47941 13.998 6.71691 13.998 7.00024C13.998 7.28358 13.9022 7.52108 13.7105 7.71274C13.5189 7.90441 13.2814 8.00024 12.998 8.00024H7.99805V13.0002C7.99805 13.2836 7.90221 13.5211 7.71055 13.7127C7.51888 13.9044 7.28138 14.0002 6.99805 14.0002C6.71471 14.0002 6.47721 13.9044 6.28555 13.7127C6.09388 13.5211 5.99805 13.2836 5.99805 13.0002V8.00024Z" fill="#1C1B1F"/>
</svg>
