<svg width="24" height="24" viewBox="0 0 24 24" fill="none" xmlns="http://www.w3.org/2000/svg">
<mask id="mask0_3_573" style="mask-type:alpha" maskUnits="userSpaceOnUse" x="0" y="0" width="24" height="24">
<rect width="24" height="24" fill="#D9D9D9"/>
</mask>
<g mask="url(#mask0_3_573)">
<path d="M9.00038 17.0015C8.45038 17.0015 7.97954 16.8056 7.58788 16.414C7.19621 16.0223 7.00038 15.5515 7.00038 15.0015V4.00146C7.00038 3.45146 7.19621 2.98063 7.58788 2.58896C7.97954 2.1973 8.45038 2.00146 9.00038 2.00146H20.0004C20.5504 2.00146 21.0212 2.1973 21.4129 2.58896C21.8045 2.98063 22.0004 3.45146 22.0004 4.00146V15.0015C22.0004 15.5515 21.8045 16.0223 21.4129 16.414C21.0212 16.8056 20.5504 17.0015 20.0004 17.0015H9.00038ZM9.00038 15.0015H20.0004V4.00146H9.00038V15.0015ZM5.70038 21.8765C5.15038 21.9431 4.65454 21.8098 4.21288 21.4765C3.77121 21.1431 3.51704 20.7015 3.45038 20.1515L2.12538 9.22646C2.05871 8.67647 2.20038 8.1848 2.55038 7.75146C2.90038 7.31813 3.35038 7.0598 3.90038 6.97646H3.95038C4.23371 6.92646 4.48788 7.00146 4.71288 7.20146C4.93788 7.40146 5.05038 7.65146 5.05038 7.95147C5.05038 8.20147 4.96288 8.41813 4.78788 8.60146C4.61288 8.7848 4.40038 8.90146 4.15038 8.95146H4.12538L5.47538 19.9015L17.3254 18.4515C17.6087 18.4181 17.8587 18.4848 18.0754 18.6515C18.292 18.8181 18.417 19.0431 18.4504 19.3265C18.4837 19.6098 18.417 19.8556 18.2504 20.064C18.0837 20.2723 17.8587 20.3931 17.5754 20.4265L5.70038 21.8765Z" fill="#222222" fill-opacity="0.6"/>
</g>
</svg>
