<svg width="16" height="16" viewBox="0 0 16 16" fill="none" xmlns="http://www.w3.org/2000/svg">
<path d="M12.1752 6.99995L7.2752 2.09995C7.0752 1.89995 6.97936 1.66662 6.9877 1.39995C6.99603 1.13328 7.1002 0.89995 7.3002 0.69995C7.5002 0.516617 7.73353 0.420783 8.0002 0.41245C8.26686 0.404117 8.5002 0.499951 8.7002 0.699951L15.3002 7.29995C15.4002 7.39995 15.471 7.50828 15.5127 7.62495C15.5544 7.74162 15.5752 7.86662 15.5752 7.99995C15.5752 8.13328 15.5544 8.25828 15.5127 8.37495C15.471 8.49162 15.4002 8.59995 15.3002 8.69995L8.7002 15.3C8.51686 15.4833 8.2877 15.575 8.0127 15.575C7.7377 15.575 7.50019 15.4833 7.30019 15.3C7.10019 15.1 7.0002 14.8625 7.0002 14.5875C7.0002 14.3125 7.1002 14.075 7.30019 13.875L12.1752 8.99995L1.0002 8.99995C0.716862 8.99995 0.479362 8.90412 0.287696 8.71245C0.0960289 8.52078 0.000196141 8.28328 0.000196165 7.99995C0.00019619 7.71662 0.096029 7.47912 0.287696 7.28745C0.479362 7.09578 0.716862 6.99995 1.0002 6.99995L12.1752 6.99995Z" fill="#1C1B1F"/>
</svg>
