<svg width="34" height="34" viewBox="0 0 34 34" fill="none" xmlns="http://www.w3.org/2000/svg">
<rect width="34" height="34" rx="4" fill="#C4DBA0"/>
<rect x="0.5" y="0.5" width="33" height="33" rx="3.5" stroke="#222222" stroke-opacity="0.2"/>
<mask id="mask0_3_614" style="mask-type:alpha" maskUnits="userSpaceOnUse" x="5" y="5" width="24" height="24">
<rect x="5" y="5" width="24" height="24" fill="#D9D9D9"/>
</mask>
<g mask="url(#mask0_3_614)">
<path d="M15.3646 16.8979L20.8896 22.4229C21.1493 22.6826 21.2792 23.0132 21.2792 23.4146C21.2792 23.816 21.1493 24.1465 20.8896 24.4062C20.6299 24.666 20.2993 24.7958 19.8979 24.7958C19.4965 24.7958 19.166 24.666 18.9063 24.4062L12.3896 17.8896C12.2479 17.7479 12.1476 17.5944 12.0885 17.4292C12.0295 17.2639 12 17.0868 12 16.8979C12 16.709 12.0295 16.5319 12.0885 16.3667C12.1476 16.2014 12.2479 16.0479 12.3896 15.9062L18.9063 9.38958C19.166 9.12986 19.4965 9 19.8979 9C20.2993 9 20.6299 9.12986 20.8896 9.38958C21.1493 9.64931 21.2792 9.97986 21.2792 10.3813C21.2792 10.7826 21.1493 11.1132 20.8896 11.3729L15.3646 16.8979Z" fill="#222222"/>
</g>
</svg>
