<svg width="24" height="24" viewBox="0 0 24 24" fill="none" xmlns="http://www.w3.org/2000/svg">
<mask id="mask0_192_532" style="mask-type:alpha" maskUnits="userSpaceOnUse" x="0" y="0" width="24" height="24">
<rect width="24" height="24" fill="#D9D9D9"/>
</mask>
<g mask="url(#mask0_192_532)">
<path d="M6 22.0015C5.16667 22.0015 4.45833 21.7098 3.875 21.1265C3.29167 20.5431 3 19.8348 3 19.0015V16.0015H6V2.00146H21V19.0015C21 19.8348 20.7083 20.5431 20.125 21.1265C19.5417 21.7098 18.8333 22.0015 18 22.0015H6ZM18 20.0015C18.2833 20.0015 18.5208 19.9056 18.7125 19.714C18.9042 19.5223 19 19.2848 19 19.0015V4.00147H8V16.0015H17V19.0015C17 19.2848 17.0958 19.5223 17.2875 19.714C17.4792 19.9056 17.7167 20.0015 18 20.0015ZM9 9.00147V7.00147H18V9.00147H9ZM9 12.0015V10.0015H18V12.0015H9ZM6 20.0015H15V18.0015H5V19.0015C5 19.2848 5.09583 19.5223 5.2875 19.714C5.47917 19.9056 5.71667 20.0015 6 20.0015ZM6 20.0015H5H15H6Z" fill="#222222" fill-opacity="0.6"/>
</g>
</svg>
