<svg id="Layer_1" data-name="Layer 1" xmlns="http://www.w3.org/2000/svg" xmlns:xlink="http://www.w3.org/1999/xlink" viewBox="0 0 16 16"><defs><style>.cls-1{fill:#d9d9d9;}.cls-2{mask:url(#mask);}.cls-3{fill:#222;}</style><mask id="mask" x="-4" y="-4" width="24" height="24" maskUnits="userSpaceOnUse"><g transform="translate(-4 -4)"><g id="mask0_1008_977" data-name="mask0 1008 977"><rect class="cls-1" width="24" height="24"/></g></g></mask></defs><title>download</title><g class="cls-2"><path class="cls-3" d="M12,15.57a1.1,1.1,0,0,1-.37-.06.84.84,0,0,1-.33-.21L7.7,11.7a.91.91,0,0,1-.29-.7,1.08,1.08,0,0,1,.29-.7A1,1,0,0,1,8.41,10a.93.93,0,0,1,.72.28L11,12.15V5a1,1,0,1,1,2,0v7.15l1.88-1.88a.89.89,0,0,1,.71-.28,1,1,0,0,1,.71.31,1.08,1.08,0,0,1,.29.7.91.91,0,0,1-.29.7l-3.6,3.6a.89.89,0,0,1-.32.21A1.21,1.21,0,0,1,12,15.57ZM6,20a2,2,0,0,1-2-2V16a1,1,0,0,1,1.71-.71A1,1,0,0,1,6,16v2H18V16a1,1,0,1,1,2,0v2a2,2,0,0,1-2,2Z" transform="translate(-4 -4)"/></g></svg>