<svg width="24" height="24" viewBox="0 0 24 24" fill="none" xmlns="http://www.w3.org/2000/svg">
<mask id="mask0_3_583" style="mask-type:alpha" maskUnits="userSpaceOnUse" x="0" y="0" width="24" height="24">
<rect width="24" height="24" fill="#D9D9D9"/>
</mask>
<g mask="url(#mask0_3_583)">
<path d="M8 12.0015V10.0015H16V12.0015H8ZM8 8.00147V6.00147H16V8.00147H8ZM6 14.0015H13.5C13.9833 14.0015 14.4333 14.1056 14.85 14.314C15.2667 14.5223 15.6167 14.8181 15.9 15.2015L18 17.9515V4.00147H6V14.0015ZM6 20.0015H17.05L14.325 16.4265C14.225 16.2931 14.1042 16.189 13.9625 16.114C13.8208 16.039 13.6667 16.0015 13.5 16.0015H6V20.0015ZM18 22.0015H6C5.45 22.0015 4.97917 21.8056 4.5875 21.414C4.19583 21.0223 4 20.5515 4 20.0015V4.00147C4 3.45147 4.19583 2.98063 4.5875 2.58896C4.97917 2.1973 5.45 2.00146 6 2.00146H18C18.55 2.00146 19.0208 2.1973 19.4125 2.58896C19.8042 2.98063 20 3.45147 20 4.00147V20.0015C20 20.5515 19.8042 21.0223 19.4125 21.414C19.0208 21.8056 18.55 22.0015 18 22.0015Z" fill="#222222" fill-opacity="0.6"/>
</g>
</svg>
