<svg width="473" height="1024" viewBox="0 0 473 1024" fill="none" xmlns="http://www.w3.org/2000/svg">
<path fill-rule="evenodd" clip-rule="evenodd" d="M410.864 -347.197C485.665 -344.305 567.189 -325.329 610.272 -264.112C654.802 -200.841 642.299 -117.048 626.082 -41.3972C609.424 36.308 592.513 131.123 519.049 161.432C447.621 190.901 383.038 107.72 307.855 89.8941C232.892 72.1203 140.392 115.32 87.6648 59.1502C31.7259 -0.441094 24.2665 -101.103 59.2027 -174.993C90.9578 -242.155 180.423 -245.476 247.144 -278.148C302.441 -305.227 349.338 -349.575 410.864 -347.197Z" fill="#005040"/>
<path fill-rule="evenodd" clip-rule="evenodd" d="M472.316 833.877C523.842 844.608 544.531 904.056 570.237 949.982C596.127 996.238 639.13 1046.28 618.543 1095.13C598.258 1143.25 529.263 1136.72 482.088 1159.13C440.474 1178.9 408.006 1222.76 362.317 1216.84C312.559 1210.4 271.99 1172.48 247.422 1128.73C222.711 1084.73 212.515 1030.71 231.535 983.968C249.261 940.404 299.78 926.849 339.693 901.969C383.533 874.641 421.741 823.344 472.316 833.877Z" fill="#C4DBA0"/>
</svg>
