<svg width="23" height="28" viewBox="0 0 23 28" fill="none" xmlns="http://www.w3.org/2000/svg">
<path d="M10.9987 27.3344C10.2654 27.3344 9.63759 27.0733 9.11537 26.5511C8.59314 26.0288 8.33203 25.4011 8.33203 24.6677H13.6654C13.6654 25.4011 13.4043 26.0288 12.882 26.5511C12.3598 27.0733 11.732 27.3344 10.9987 27.3344ZM1.66536 23.3344C1.28759 23.3344 0.97092 23.2066 0.715365 22.9511C0.459809 22.6955 0.332031 22.3788 0.332031 22.0011C0.332031 21.6233 0.459809 21.3066 0.715365 21.0511C0.97092 20.7955 1.28759 20.6677 1.66536 20.6677H2.9987V11.3344C2.9987 9.48995 3.55425 7.85106 4.66537 6.41773C5.77648 4.98439 7.22092 4.0455 8.9987 3.60106V2.66773C8.9987 2.11217 9.19314 1.63995 9.58203 1.25106C9.97092 0.862169 10.4431 0.667725 10.9987 0.667725C11.5543 0.667725 12.0265 0.862169 12.4154 1.25106C12.8043 1.63995 12.9987 2.11217 12.9987 2.66773V3.10106C12.7543 3.58995 12.5765 4.08995 12.4654 4.60106C12.3543 5.11217 12.3098 5.63439 12.332 6.16773C12.1098 6.12328 11.8931 6.08439 11.682 6.05106C11.4709 6.01773 11.2431 6.00106 10.9987 6.00106C9.53203 6.00106 8.27648 6.52328 7.23203 7.56773C6.18759 8.61217 5.66537 9.86773 5.66537 11.3344V20.6677H16.332V12.1011C16.732 12.2788 17.1598 12.4177 17.6154 12.5177C18.0709 12.6177 18.532 12.6677 18.9987 12.6677V20.6677H20.332C20.7098 20.6677 21.0265 20.7955 21.282 21.0511C21.5376 21.3066 21.6654 21.6233 21.6654 22.0011C21.6654 22.3788 21.5376 22.6955 21.282 22.9511C21.0265 23.2066 20.7098 23.3344 20.332 23.3344H1.66536ZM18.9987 10.0011C17.8876 10.0011 16.9431 9.61217 16.1654 8.83439C15.3876 8.05661 14.9987 7.11217 14.9987 6.00106C14.9987 4.88995 15.3876 3.9455 16.1654 3.16773C16.9431 2.38995 17.8876 2.00106 18.9987 2.00106C20.1098 2.00106 21.0543 2.38995 21.832 3.16773C22.6098 3.9455 22.9987 4.88995 22.9987 6.00106C22.9987 7.11217 22.6098 8.05661 21.832 8.83439C21.0543 9.61217 20.1098 10.0011 18.9987 10.0011Z" fill="#222222"/>
</svg>
