<svg width="25" height="24" viewBox="0 0 25 24" fill="none" xmlns="http://www.w3.org/2000/svg">
<mask id="mask0_771_1131" style="mask-type:alpha" maskUnits="userSpaceOnUse" x="0" y="0" width="25" height="24">
<rect x="0.5" width="24" height="24" fill="#D9D9D9"/>
</mask>
<g mask="url(#mask0_771_1131)">
<path d="M6.5 20.0008C5.95 20.0008 5.47917 19.8049 5.0875 19.4133C4.69583 19.0216 4.5 18.5508 4.5 18.0008V16.0008C4.5 15.7174 4.59583 15.4799 4.7875 15.2883C4.97917 15.0966 5.21667 15.0008 5.5 15.0008C5.78333 15.0008 6.02083 15.0966 6.2125 15.2883C6.40417 15.4799 6.5 15.7174 6.5 16.0008V18.0008H18.5V16.0008C18.5 15.7174 18.5958 15.4799 18.7875 15.2883C18.9792 15.0966 19.2167 15.0008 19.5 15.0008C19.7833 15.0008 20.0208 15.0966 20.2125 15.2883C20.4042 15.4799 20.5 15.7174 20.5 16.0008V18.0008C20.5 18.5508 20.3042 19.0216 19.9125 19.4133C19.5208 19.8049 19.05 20.0008 18.5 20.0008H6.5ZM11.5 7.85078L9.625 9.72578C9.425 9.92578 9.1875 10.0216 8.9125 10.0133C8.6375 10.0049 8.4 9.90078 8.2 9.70078C8.01667 9.50078 7.92083 9.26745 7.9125 9.00078C7.90417 8.73411 8 8.50078 8.2 8.30078L11.8 4.70078C11.9 4.60078 12.0083 4.52995 12.125 4.48828C12.2417 4.44661 12.3667 4.42578 12.5 4.42578C12.6333 4.42578 12.7583 4.44661 12.875 4.48828C12.9917 4.52995 13.1 4.60078 13.2 4.70078L16.8 8.30078C17 8.50078 17.0958 8.73411 17.0875 9.00078C17.0792 9.26745 16.9833 9.50078 16.8 9.70078C16.6 9.90078 16.3625 10.0049 16.0875 10.0133C15.8125 10.0216 15.575 9.92578 15.375 9.72578L13.5 7.85078V15.0008C13.5 15.2841 13.4042 15.5216 13.2125 15.7133C13.0208 15.9049 12.7833 16.0008 12.5 16.0008C12.2167 16.0008 11.9792 15.9049 11.7875 15.7133C11.5958 15.5216 11.5 15.2841 11.5 15.0008V7.85078Z" fill="#6C757D"/>
</g>
</svg>
